<svg width="24" height="24" viewBox="0 0 24 24" fill="none" xmlns="http://www.w3.org/2000/svg">
<path fill-rule="evenodd" clip-rule="evenodd" d="M12.3529 3.9029C13.5719 2.68335 15.2256 1.99818 16.95 1.99818C18.6743 1.99818 20.3279 2.68329 21.5469 3.90273C22.7664 5.12177 23.4518 6.77572 23.4518 8.5C23.4518 10.2244 22.7666 11.8781 21.5471 13.0971C21.547 13.0972 21.5472 13.0971 21.5471 13.0971L12.7071 21.9371C12.3166 22.3276 11.6834 22.3276 11.2929 21.9371L2.45289 13.0971C-0.086022 10.5582 -0.0860219 6.44181 2.45289 3.9029C4.9918 1.36398 9.10819 1.36398 11.6471 3.9029L12 4.25579L12.3529 3.9029C12.3529 3.90284 12.3528 3.90295 12.3529 3.9029ZM16.95 3.99818C15.7562 3.99818 14.6112 4.47257 13.7673 5.31694L12.7071 6.37711C12.5196 6.56464 12.2652 6.67 12 6.67C11.7348 6.67 11.4804 6.56465 11.2929 6.37711L10.2329 5.31711C8.47503 3.55925 5.62497 3.55925 3.8671 5.31711C2.10924 7.07497 2.10924 9.92503 3.8671 11.6829L12 19.8158L20.1329 11.6829C20.9773 10.8389 21.4518 9.69384 21.4518 8.5C21.4518 7.30616 20.9774 6.16125 20.1331 5.31727C19.2891 4.4729 18.1438 3.99818 16.95 3.99818Z" fill="#666666"/>
</svg>
