<svg width="24" height="24" viewBox="0 0 24 24" fill="none" xmlns="http://www.w3.org/2000/svg">
<path fill-rule="evenodd" clip-rule="evenodd" d="M8 4C8 1.79086 9.79086 0 12 0C14.2091 0 16 1.79086 16 4V12C16 14.2091 14.2091 16 12 16C9.79086 16 8 14.2091 8 12V4ZM12 2C10.8954 2 10 2.89543 10 4V12C10 13.1046 10.8954 14 12 14C13.1046 14 14 13.1046 14 12V4C14 2.89543 13.1046 2 12 2Z" fill="#666666"/>
<path fill-rule="evenodd" clip-rule="evenodd" d="M5 9C5.55228 9 6 9.44772 6 10V12C6 15.3137 8.68629 18 12 18C15.3137 18 18 15.3137 18 12V10C18 9.44772 18.4477 9 19 9C19.5523 9 20 9.44772 20 10V12C20 16.4183 16.4183 20 12 20C7.58172 20 4 16.4183 4 12V10C4 9.44772 4.44772 9 5 9Z" fill="#666666"/>
<path fill-rule="evenodd" clip-rule="evenodd" d="M12 18C12.5523 18 13 18.4477 13 19V23C13 23.5523 12.5523 24 12 24C11.4477 24 11 23.5523 11 23V19C11 18.4477 11.4477 18 12 18Z" fill="#666666"/>
<path fill-rule="evenodd" clip-rule="evenodd" d="M7 23C7 22.4477 7.44772 22 8 22H16C16.5523 22 17 22.4477 17 23C17 23.5523 16.5523 24 16 24H8C7.44772 24 7 23.5523 7 23Z" fill="#666666"/>
</svg>
