<svg width="24" height="24" viewBox="0 0 24 24" fill="none" xmlns="http://www.w3.org/2000/svg">
<path fill-rule="evenodd" clip-rule="evenodd" d="M14 17C14 15.3431 15.3431 14 17 14H21C21.5523 14 22 14.4477 22 15V17C22 18.6569 20.6569 20 19 20H17C15.3431 20 14 18.6569 14 17ZM17 16C16.4477 16 16 16.4477 16 17C16 17.5523 16.4477 18 17 18H19C19.5523 18 20 17.5523 20 17V16H17ZM2 19C2 17.3431 3.34315 16 5 16H9C9.55228 16 10 16.4477 10 17V19C10 20.6569 8.65685 22 7 22H5C3.34315 22 2 20.6569 2 19ZM5 18C4.44772 18 4 18.4477 4 19C4 19.5523 4.44772 20 5 20H7C7.55228 20 8 19.5523 8 19V18H5Z" fill="#666666"/>
<path fill-rule="evenodd" clip-rule="evenodd" d="M21.6464 2.23698C21.8707 2.42698 22 2.70605 22 3V15C22 15.5523 21.5523 16 21 16C20.4477 16 20 15.5523 20 15V4.18046L10 5.84713V17C10 17.5523 9.55228 18 9 18C8.44772 18 8 17.5523 8 17V5C8 4.51116 8.35341 4.09397 8.8356 4.01361L20.8356 2.01361C21.1256 1.96528 21.4221 2.04698 21.6464 2.23698Z" fill="#666666"/>
</svg>
