<svg width="24" height="24" viewBox="0 0 24 24" fill="none" xmlns="http://www.w3.org/2000/svg">
<path fill-rule="evenodd" clip-rule="evenodd" d="M2 18C2 16.3431 3.34315 15 5 15H9C9.55228 15 10 15.4477 10 16V18C10 19.6569 8.65685 21 7 21H5C3.34315 21 2 19.6569 2 18ZM5 17C4.44772 17 4 17.4477 4 18C4 18.5523 4.44772 19 5 19H7C7.55228 19 8 18.5523 8 18V17H5Z" fill="#666666"/>
<path fill-rule="evenodd" clip-rule="evenodd" d="M9 3C9.55228 3 10 3.44772 10 4V16C10 16.5523 9.55228 17 9 17C8.44772 17 8 16.5523 8 16V4C8 3.44772 8.44772 3 9 3Z" fill="#666666"/>
<path fill-rule="evenodd" clip-rule="evenodd" d="M12 7C12 6.44772 12.4477 6 13 6H21C21.5523 6 22 6.44772 22 7C22 7.55228 21.5523 8 21 8H13C12.4477 8 12 7.55228 12 7Z" fill="#666666"/>
<path fill-rule="evenodd" clip-rule="evenodd" d="M12 12C12 11.4477 12.4477 11 13 11H21C21.5523 11 22 11.4477 22 12C22 12.5523 21.5523 13 21 13H13C12.4477 13 12 12.5523 12 12Z" fill="#666666"/>
<path fill-rule="evenodd" clip-rule="evenodd" d="M12 17C12 16.4477 12.4477 16 13 16H21C21.5523 16 22 16.4477 22 17C22 17.5523 21.5523 18 21 18H13C12.4477 18 12 17.5523 12 17Z" fill="#666666"/>
</svg>
