<svg width="24" height="24" viewBox="0 0 24 24" fill="none" xmlns="http://www.w3.org/2000/svg">
<path fill-rule="evenodd" clip-rule="evenodd" d="M4.56681 20.9013C4.22035 20.7348 4 20.3844 4 20L4 3.99999C4 3.61558 4.22035 3.26521 4.56681 3.09869C4.91328 2.93217 5.32453 2.97898 5.6247 3.21912L15.6247 11.2191C15.8619 11.4089 16 11.6962 16 12C16 12.3038 15.8619 12.5911 15.6247 12.7809L5.62469 20.7809C5.32452 21.021 4.91328 21.0678 4.56681 20.9013Z" fill="#666666"/>
<path fill-rule="evenodd" clip-rule="evenodd" d="M19 20C18.4477 20 18 19.5523 18 19L18 5C18 4.44771 18.4477 4 19 4C19.5523 4 20 4.44771 20 5L20 19C20 19.5523 19.5523 20 19 20Z" fill="#666666"/>
</svg>
