<svg width="24" height="24" viewBox="0 0 24 24" fill="none" xmlns="http://www.w3.org/2000/svg">
<path fill-rule="evenodd" clip-rule="evenodd" d="M3 20C3 17.2386 5.23858 15 8 15H16C18.7614 15 21 17.2386 21 20V22C21 22.5523 20.5523 23 20 23C19.4477 23 19 22.5523 19 22V20C19 18.3431 17.6569 17 16 17H8C6.34315 17 5 18.3431 5 20V22C5 22.5523 4.55228 23 4 23C3.44772 23 3 22.5523 3 22V20Z" fill="#666666"/>
<path fill-rule="evenodd" clip-rule="evenodd" d="M6 7C6 3.68629 8.68629 1 12 1C15.3137 1 18 3.68629 18 7C18 10.3137 15.3137 13 12 13C8.68629 13 6 10.3137 6 7ZM12 3C9.79086 3 8 4.79086 8 7C8 9.20914 9.79086 11 12 11C14.2091 11 16 9.20914 16 7C16 4.79086 14.2091 3 12 3Z" fill="#666666"/>
</svg>
