<svg width="24" height="24" viewBox="0 0 24 24" fill="none" xmlns="http://www.w3.org/2000/svg">
<path fill-rule="evenodd" clip-rule="evenodd" d="M11.4332 4.09871C11.7797 4.26523 12 4.6156 12 5.00001V19C12 19.3844 11.7797 19.7348 11.4332 19.9013C11.0867 20.0678 10.6755 20.021 10.3753 19.7809L5.64922 16H2C1.44772 16 1 15.5523 1 15V9.00001C1 8.44772 1.44772 8.00001 2 8.00001H5.64922L10.3753 4.21914C10.6755 3.979 11.0867 3.93219 11.4332 4.09871Z" fill="#666666"/>
<path fill-rule="evenodd" clip-rule="evenodd" d="M18.363 4.22278C18.7536 3.83231 19.3867 3.83241 19.7772 4.22299C24.0714 8.51849 24.0714 15.4815 19.7772 19.777C19.3867 20.1676 18.7536 20.1677 18.363 19.7772C17.9724 19.3867 17.9723 18.7536 18.3628 18.363C21.8762 14.8485 21.8762 9.15149 18.3628 5.63699C17.9723 5.24641 17.9724 4.61324 18.363 4.22278ZM14.833 7.75278C15.2236 7.36231 15.8567 7.36241 16.2472 7.75299C18.5895 10.096 18.5895 13.894 16.2472 16.237C15.8567 16.6276 15.2236 16.6277 14.833 16.2372C14.4424 15.8467 14.4423 15.2136 14.8328 14.823C16.3943 13.261 16.3943 10.729 14.8328 9.16699C14.4423 8.77641 14.4424 8.14324 14.833 7.75278Z" fill="#666666"/>
</svg>
